PathFileType	4	(X/Y/Z)	C:\Users\WrightLab\Desktop\Jo\P1_boxCal33.trc
DataRate	CameraRate	NumFrames	NumMarkers	Units	OrigDataRate	OrigDataStartFrame	OrigNumFrames
100.00	100.00	       9	19	mm	100.00	157	       624
Frame#	Time	Headset_Front			Headset_Back			Headset_Left			Headset_Right			Left_Shoulder			Right_Shoulder			Sternum			C7			Left Elbow			Right Elbow			Left Wrist			Right Wrist			Left ASIS			Right ASIS			S2			Left Knee			Right Knee			Left Ankle			Right Ankle			
		X1	Y1	Z1	X2	Y2	Z2	X3	Y3	Z3	X4	Y4	Z4	X5	Y5	Z5	X6	Y6	Z6	X7	Y7	Z7	X8	Y8	Z8	X9	Y9	Z9	X10	Y10	Z10	X11	Y11	Z11	X12	Y12	Z12	X13	Y13	Z13	X14	Y14	Z14	X15	Y15	Z15	X16	Y16	Z16	X17	Y17	Z17	X18	Y18	Z18	X19	Y19	Z19	

157	1.560	-684.60522	1339.15283	-391.13217	-692.59393	1501.86987	-644.45447	-581.77100	1415.17993	-550.66492	-794.23529	1401.56055	-471.86124	-507.54483	1259.38794	-618.07111	-888.87109	1249.36731	-639.87012	-728.21112	1148.56775	-503.69550	-681.32452	1267.67310	-738.18396	-423.57782	943.34503	-666.92432	-963.73163	987.62506	-726.10376	-392.81656	759.33868	-534.38885	-1044.01050	755.74792	-675.58337	-627.65552	868.82153	-469.58737	-822.98700	867.62244	-529.48456	-633.87659	885.58716	-804.45569	-561.62219	424.56943	-596.32928	-926.83331	474.94730	-569.11194	-634.16168	60.99594	-662.65320	-799.28845	125.23476	-789.25714	
158	1.570	-685.72699	1340.09473	-380.86481	-694.42084	1502.04248	-635.28650	-583.65393	1415.62378	-541.76611	-794.90222	1402.05994	-462.53745	-508.79147	1259.53235	-608.77417	-889.29614	1250.16931	-630.33917	-726.92462	1149.32178	-497.91196	-682.88177	1268.00500	-729.82410	-424.87378	944.02124	-658.31763	-964.67230	988.38306	-717.30426	-394.54343	760.94397	-524.02454	-1044.56042	754.47711	-667.91644	-626.01215	870.18555	-462.61041	-821.57288	867.33508	-519.09552	-637.29144	886.47601	-796.49768	-561.01392	423.91669	-593.75470	-924.65753	476.99951	-554.04010	-633.87244	62.29634	-662.98322				
159	1.580	-686.88666	1340.04614	-371.25513	-696.07385	1502.33215	-626.75470	-584.51587	1416.44006	-533.55396	-795.36670	1401.50317	-452.72171	-509.02841	1260.82971	-602.33203	-890.46423	1249.73486	-619.81329	-725.24414	1148.78149	-488.17728	-684.47345	1268.30444	-720.81158	-425.71674	944.18054	-649.08777	-965.51373	989.23578	-708.27692	-396.69791	762.15991	-513.54077	-1046.14978	755.06421	-660.70154	-624.21967	871.11029	-454.33456	-820.76947	867.80658	-508.98300	-641.09155	886.62195	-789.00146	-561.42163	423.76147	-592.01764	-922.83569	478.43753	-538.60516	-634.00665	62.47367	-662.94690				
160	1.590	-686.98950	1340.71069	-363.62646	-697.72900	1502.10547	-617.72711	-585.83008	1416.86743	-523.70685	-796.63763	1401.90088	-443.61746	-510.08386	1260.99072	-593.75739	-891.42450	1249.46912	-609.65460	-727.93414	1150.10022	-480.40158	-685.94830	1268.11267	-710.67303	-426.36240	944.53125	-639.94446	-966.59595	989.29480	-698.75092	-399.10236	762.46832	-504.28903	-1048.57190	756.07611	-652.24701	-622.41553	870.50623	-447.15439	-819.26257	867.77112	-498.20547	-644.95508	886.79456	-781.18030	-562.34167	422.91461	-589.23236	-920.69275	478.84619	-523.41174	-633.82141	62.78923	-662.84381				
161	1.600	-688.00769	1341.01831	-351.19919	-699.15771	1502.01343	-608.78802	-586.41101	1416.70044	-515.34302	-797.27655	1401.48657	-434.36310	-511.18170	1260.84033	-584.65210	-892.31781	1249.07031	-599.60583	-726.00342	1147.44495	-470.04504	-687.29633	1268.05676	-702.27032	-426.34186	944.56213	-631.50812	-967.97192	989.54047	-689.26862	-400.22263	763.03711	-492.64478	-1049.86670	754.74176	-642.54987	-621.52997	871.10315	-439.38159	-817.87708	867.34723	-488.32516	-648.17291	886.68201	-772.79803	-562.73560	422.38373	-586.13434	-918.44141	479.78641	-509.69852	-633.71649	63.02092	-662.44904				
162	1.610	-687.90778	1340.92810	-344.06876	-700.49487	1501.74622	-599.62518	-588.09235	1417.37964	-506.46878	-798.37183	1401.03650	-425.19250	-511.75345	1260.64575	-577.28326	-893.31506	1248.98914	-589.25409	-725.77911	1148.22424	-461.12204	-688.63733	1267.94824	-693.21460	-427.05115	944.33105	-623.54749	-969.10779	989.62805	-679.61658	-401.73047	763.65869	-482.55341	-1050.96167	753.52222	-633.92291	-619.92371	870.63129	-432.16632	-817.96973	867.14111	-478.18936	-652.32977	887.49408	-765.25751	-563.22559	422.31390	-583.08575	-915.84692	479.69601	-495.44260	-633.71649	63.02092	-662.44904				
163	1.620	-688.72327	1340.68250	-333.76175	-701.78870	1501.07214	-590.63416	-588.13123	1418.08899	-498.33197	-799.30774	1400.78516	-415.90454	-512.24268	1260.56860	-569.80573	-893.65295	1248.43652	-578.95789	-727.32635	1148.13831	-452.56168	-689.92853	1267.63928	-683.77075	-428.45883	943.53784	-614.98486	-970.31226	989.16522	-669.22034	-403.60672	763.74438	-471.84720	-1051.07715	755.40350	-629.05084	-618.60797	870.20306	-425.55325	-816.66656	866.15601	-467.16846	-656.68451	887.01385	-757.25006	-564.33307	421.58221	-579.98645	-913.39783	479.03214	-481.89496	-633.71649	63.02092	-662.44904	-874.65588	42.54495	-580.96259	
164	1.630	-688.79279	1340.94556	-324.46933	-702.90216	1500.40955	-580.86584	-589.80872	1417.39148	-487.56934	-799.91687	1399.30042	-406.26947	-512.61322	1259.46277	-560.61395	-894.32819	1247.54688	-568.10358	-724.83069	1145.18665	-441.73434	-691.26630	1267.35596	-674.56201	-428.46634	942.34741	-606.35992	-971.67682	989.22986	-659.50812	-404.83762	763.42725	-462.19708	-1052.89722	755.24701	-620.93622	-618.77087	868.15106	-422.06308	-815.94543	864.33331	-457.70370	-660.15607	886.54114	-748.68066	-565.07336	421.46194	-578.26874	-909.53296	477.45749	-468.36948	-633.71649	63.02092	-662.44904				
165	1.640	-688.39453	1339.24329	-316.29608	-703.94574	1499.79810	-572.22589	-589.60980	1417.39954	-479.61099	-800.01898	1398.79041	-396.86478	-513.95044	1258.21375	-551.81689	-894.60913	1246.55176	-558.14777	-725.93347	1144.84607	-432.83273	-692.59216	1266.81067	-665.64044	-429.09698	941.39240	-596.84210	-973.11664	988.83813	-649.48730	-406.46036	763.38861	-451.81876	-1054.43274	754.58087	-611.42584	-618.34052	867.07703	-414.59589	-815.17749	862.50177	-446.83813	-664.07629	885.81805	-740.29602	-566.03693	420.42719	-575.16522	-907.41650	477.29645	-455.80655	-634.46442	63.81216	-662.69226	-883.16547	36.89473	-523.49487	
